<svg version="1.1" xmlns="http://www.w3.org/2000/svg" xmlns:xlink="http://www.w3.org/1999/xlink" viewBox="0 0 172 172"><g fill="none" fill-rule="nonzero" stroke="none" stroke-width="1" stroke-linecap="butt" stroke-linejoin="miter" stroke-miterlimit="10" stroke-dasharray="" stroke-dashoffset="0" font-family="none" font-weight="none" font-size="none" text-anchor="none" style="mix-blend-mode: normal"><path d="M0,172v-172h172v172z" fill="none"></path><g fill="#ffffff"><path d="M86,10.32c-41.796,0 -75.68,33.884 -75.68,75.68c0,37.9432 27.95,69.27128 64.36928,74.74432v-54.68568h-18.72392v-19.89352h18.72392v-13.23712c0,-21.91624 10.67776,-31.53792 28.89256,-31.53792c8.72384,0 13.33688,0.64672 15.52128,0.94256v17.36512h-12.42528c-7.73312,0 -10.43352,7.33064 -10.43352,15.59352v10.87384h22.66272l-3.07536,19.89352h-19.58736v54.84736c36.93872,-5.01208 65.43568,-36.59472 65.43568,-74.906c0,-41.796 -33.884,-75.68 -75.68,-75.68z"></path></g></g></svg>