<svg version="1.1" xmlns="http://www.w3.org/2000/svg" xmlns:xlink="http://www.w3.org/1999/xlink" viewBox="0 0 226 226"><g fill="none" fill-rule="nonzero" stroke="none" stroke-width="1" stroke-linecap="butt" stroke-linejoin="miter" stroke-miterlimit="10" stroke-dasharray="" stroke-dashoffset="0" font-family="none" font-weight="none" font-size="none" text-anchor="none" style="mix-blend-mode: normal"><path d="M0,226v-226h226v226z" fill="none"></path><g fill="#ffffff"><path d="M176.42125,212.44c-0.07063,0 -0.14125,0 -0.21187,0c-33.97063,-1.11234 -73.76781,-34.04125 -101.18797,-61.47906c-27.45547,-27.43781 -60.38437,-67.25266 -61.44375,-101.06437c-0.38844,-11.865 28.72672,-32.96422 29.02688,-33.17609c7.55687,-5.26156 15.94359,-3.39 19.38656,1.37719c2.33062,3.23109 24.40094,36.67203 26.80219,40.46813c2.48953,3.93734 2.11875,9.79922 -0.98875,15.67875c-1.71266,3.26641 -7.39797,13.25984 -10.06406,17.92109c2.87797,4.09625 10.48781,14.14266 26.20188,29.85672c15.73172,15.71406 25.76047,23.34156 29.87438,26.21953c4.66125,-2.66609 14.65469,-8.35141 17.92109,-10.06406c5.79125,-3.07219 11.61781,-3.46063 15.59047,-1.02406c4.06094,2.48953 37.41359,24.66578 40.48578,26.80219c2.57781,1.81859 4.2375,4.92609 4.57297,8.54563c0.31781,3.65484 -0.81219,7.52156 -3.16047,10.89391c-0.19422,0.2825 -21.04625,29.04453 -32.80531,29.04453z"></path></g></g></svg>